/* XPM */
static char *_0c135c2bc6747f18b3d77e9ce5f5681NCmriba8CcvOeeeq[] = {
/* columns rows colors chars-per-pixel */
"16 16 145 2 ",
"   c #004400",
".  c #022002",
"X  c #021C02",
"o  c #003800",
"O  c #040004",
"+  c #012701",
"@  c #006800",
"#  c #005F00",
"$  c #006900",
"%  c #000700",
"&  c #002E00",
"*  c #002600",
"=  c black",
"-  c #002A00",
";  c #002700",
":  c #003B00",
">  c #003700",
",  c #001C00",
"<  c #002000",
"1  c #021002",
"2  c #004200",
"3  c #005A00",
"4  c #006000",
"5  c #030003",
"6  c #002C00",
"7  c #004A00",
"8  c #016701",
"9  c #10A710",
"0  c None",
"q  c #011201",
"w  c #003F00",
"e  c #005300",
"r  c #048504",
"t  c #1FC51F",
"y  c #004300",
"u  c #004800",
"i  c #006800",
"p  c #0CA70C",
"a  c #014801",
"s  c #048304",
"d  c #20C220",
"f  c #004700",
"g  c #007200",
"h  c #009700",
"j  c #00B400",
"k  c #008300",
"l  c #004800",
"z  c #004400",
"x  c #005F00",
"c  c #008A00",
"v  c #00A300",
"b  c #006900",
"n  c #004A00",
"m  c #001E00",
"M  c #004200",
"N  c #005000",
"B  c #007200",
"V  c #009A00",
"C  c #00B700",
"Z  c #008400",
"A  c #005500",
"S  c #004100",
"D  c #001000",
"F  c black",
"G  c #003200",
"H  c #005E00",
"J  c #008700",
"K  c #00A700",
"L  c #008A00",
"P  c DarkGreen",
"I  c #004F00",
"U  c #001D00",
"Y  c #004300",
"T  c #005500",
"R  c #005900",
"E  c #003F00",
"W  c #001400",
"Q  c #73ED73",
"!  c #BDFFBD",
"~  c #44DA44",
"^  c #A0FAA0",
"/  c #CBFFCB",
"(  c #D4FFD4",
")  c #74ED74",
"_  c #BEFFBE",
"`  c #87FF87",
"'  c #45FF45",
"]  c #064806",
"[  c #429542",
"{  c #9DF19D",
"}  c #CFFFCF",
"|  c #B2FFB2",
" . c #5CFF5C",
".. c #1DFF1D",
"X. c green",
"o. c #0A480A",
"O. c #659465",
"+. c #C1F0C1",
"@. c #8AFF8A",
"#. c #39FF39",
"$. c #09FF09",
"%. c #044804",
"&. c #2C942C",
"*. c #4DF04D",
"=. c #21FF21",
"-. c #01FE01",
";. c #00FE00",
":. c #004800",
">. c #018A01",
",. c #02DB02",
"<. c #01EA01",
"1. c #00E700",
"2. c #004600",
"3. c #007100",
"4. c #00AB00",
"5. c #00C600",
"6. c #00CD00",
"7. c #00CC00",
"8. c #00C500",
"9. c #00AA00",
"0. c #007000",
"q. c #006D00",
"w. c #009F00",
"e. c #00AF00",
"r. c #00BA00",
"t. c #00C900",
"y. c #00B900",
"u. c #00B600",
"i. c #007600",
"p. c #004700",
"a. c #00A200",
"s. c #00A900",
"d. c #00B400",
"f. c #00C300",
"g. c #00C200",
"h. c #00B500",
"j. c #00A000",
"k. c #00A400",
"l. c #00AE00",
"z. c #00B700",
"x. c #00BC00",
"c. c #00A300",
"v. c #00A100",
"b. c #00B300",
"n. c white",
/* pixels */
"  . X o 1 2 3 4 4 3 2 1 o X .   ",
"O + 5 6 7 8 9 0 0 9 8 7 6 5 + O ",
"@ q w e r t Q ! ! Q t r e w q @ ",
"y u i p ~ ^ / ( ( / ^ ~ p i u y ",
"a s d ) _ / ` ' ' ` / _ ) d s a ",
"] [ { } |  ...X.X... .| } { [ ] ",
"o.O.+.@.#.$.X.X.X.X.$.#.@.+.O.o.",
"%.&.*.=.-.;.;.;.;.;.;.-.=.*.&.%.",
":.>.,.<.1.1.1.1.1.1.1.1.<.,.>.:.",
"2.3.4.5.6.6.7.7.7.7.6.6.8.9.0.2.",
"2.q.w.e.r.t.6.7.7.6.t.y.u.e.i.p.",
"f g h a.s.d.f.6.6.g.h.d.y.j k l ",
"z u x c j.k.l.z.z.d.h.x.v b n z ",
"# m M N B V c.j.v.b.C Z A S D $ ",
"% & F G 7 H J K K L P I 6 F * = ",
"  - ; : U Y T R R T E W > , <   "
};
