/* XPM */
static char *_a62ba70d1d74d6ec902a74381d86d64YLbsRFNK4Depgefh[] = {
/* columns rows colors chars-per-pixel */
"16 16 187 2 ",
"   c #004400",
".  c #012001",
"X  c #011C01",
"o  c #003800",
"O  c #001C00",
"+  c #002000",
"@  c #020002",
"#  c #012701",
"$  c #002700",
"%  c black",
"&  c #006800",
"*  c #005E00",
"=  c #006900",
"-  c #000800",
";  c #002F00",
":  c #002600",
">  c #002A00",
",  c #003B00",
"<  c #003700",
"1  c #011001",
"2  c #004200",
"3  c #005A00",
"4  c #006000",
"5  c #001000",
"6  c #020002",
"7  c #002C00",
"8  c #004A00",
"9  c #006700",
"0  c #08A708",
"q  c None",
"w  c #04D404",
"e  c #00A700",
"r  c black",
"t  c #011201",
"y  c #003F00",
"u  c #005300",
"i  c #028502",
"p  c #11C511",
"a  c #00C500",
"s  c #008500",
"d  c #001200",
"f  c #004300",
"g  c #004800",
"h  c #006800",
"j  c #06A706",
"k  c #00A700",
"l  c #004800",
"z  c #028302",
"x  c #10C210",
"c  c #00C200",
"v  c #008300",
"b  c #004700",
"n  c #007200",
"m  c #00A000",
"M  c #00B600",
"N  c #008500",
"B  c #004400",
"V  c #004700",
"C  c #005E00",
"Z  c #008C00",
"A  c #00A400",
"S  c #004900",
"D  c #002000",
"F  c #004100",
"G  c #004F00",
"H  c #007300",
"J  c #00A200",
"K  c #00B700",
"L  c #008400",
"P  c #005500",
"I  c #001000",
"U  c #003300",
"Y  c #004900",
"T  c #008C00",
"R  c #00AD00",
"E  c #00A900",
"W  c #008B00",
"Q  c DarkGreen",
"!  c #004F00",
"~  c #001E00",
"^  c #005400",
"/  c #005800",
"(  c #005900",
")  c #005500",
"_  c #003F00",
"`  c #001400",
"'  c #43ED43",
"]  c #52FF52",
"[  c #1AFF1A",
"{  c #00ED00",
"}  c #23DA23",
"|  c #5FFA5F",
" . c #9BFF9B",
".. c #8FFF8F",
"X. c #2BFF2B",
"o. c green",
"O. c #00FA00",
"+. c #00DA00",
"@. c #3FED3F",
"#. c #7BFF7B",
"$. c #AFFFAF",
"%. c #CCFFCC",
"&. c #A1FFA1",
"*. c #30FF30",
"=. c #034803",
"-. c #239523",
";. c #5DF15D",
":. c #98FF98",
">. c #BEFFBE",
",. c #D0FFD0",
"<. c #E4FFE4",
"1. c #C2FFC2",
"2. c #58FF58",
"3. c #17FF17",
"4. c #04FF04",
"5. c #00F100",
"6. c #009500",
"7. c #004800",
"8. c #074807",
"9. c #4A944A",
"0. c #A6F0A6",
"q. c #C6FFC6",
"w. c #D4FFD4",
"e. c #E6FFE6",
"r. c #F5FFF5",
"t. c #A8FFA8",
"y. c #61FF61",
"u. c #28FF28",
"i. c #0AFF0A",
"p. c #00F000",
"a. c #009400",
"s. c #044804",
"d. c #2A942A",
"f. c #5BF05B",
"g. c #64FF64",
"h. c #69FE69",
"j. c #77FE77",
"k. c #7BFE7B",
"l. c #76FE76",
"z. c #66FE66",
"x. c #46FF46",
"c. c #21FF21",
"v. c #09FF09",
"b. c #018A01",
"n. c #03DB03",
"m. c #03EA03",
"M. c #03E703",
"N. c #02E702",
"B. c #01E701",
"V. c #00E700",
"C. c #00EA00",
"Z. c #00DB00",
"A. c #008A00",
"S. c #004700",
"D. c #007E00",
"F. c #00C300",
"G. c #00CF00",
"H. c #00CC00",
"J. c #00CD00",
"K. c #00C600",
"L. c #00B600",
"P. c #00AF00",
"I. c #00BC00",
"U. c #00BE00",
"Y. c #007F00",
"T. c #00C400",
"R. c #00D000",
"E. c #00BD00",
"W. c #009800",
"Q. c #008800",
"!. c #008700",
"~. c #00A800",
"^. c #00CA00",
"/. c #008900",
"(. c #00C000",
"). c #00CE00",
"_. c #009700",
"`. c #008400",
"'. c #008B00",
"]. c #00A400",
"[. c #00B800",
"{. c #00B200",
"}. c #009600",
"|. c #00AE00",
" X c #00C100",
".X c #00C200",
"XX c white",
/* pixels */
"  . X o 1 2 3 4 4 3 2 5 o O +   ",
"@ # 6 7 8 9 0 q w e 9 8 7 r $ % ",
"& t y u i p ' ] [ { a s u y d & ",
"f g h j } |  ...X.o.O.+.k h g f ",
"l z x @.#.$.%.&.*.o.o.o.{ c v l ",
"=.-.;.:.>.,.<.1.2.3.4.o.o.5.6.7.",
"8.9.0.q.w.e.r.e.t.y.u.i.o.p.a.7.",
"s.d.f.g.h.j.k.l.z.x.c.v.o.p.a.7.",
"7.b.n.m.M.M.M.M.M.N.B.V.C.Z.A.7.",
"S.D.F.G.H.H.J.K.L.P.P.P.I.U.Y.S.",
"S.Y.T.R.H.H.J.E.W.Q.Q.!.~.^./.7.",
"b n m (.).J.J.E._.`.'.].[.M N l ",
"B V C Z {.^.R.I._.}.|.I.A h S B ",
"* D F G H J  X.X~.P.K L P F I = ",
"- ; r U Y C T R E W Q ! 7 r : % ",
"  > $ , ~ 2 ^ / ( ) _ ` < O +   "
};
