/* XPM */
static char *_5199d126be348e2e84a39c90c1f7fcfy2BsHuRNobN4Mr1z[] = {
/* columns rows colors chars-per-pixel */
"16 16 191 2 ",
"   c #004400",
".  c #012001",
"X  c #011C01",
"o  c #003800",
"O  c #020002",
"+  c #012701",
"@  c #006800",
"#  c #005E00",
"$  c #006900",
"%  c #000800",
"&  c #002F00",
"*  c #002700",
"=  c black",
"-  c #002A00",
";  c #003B00",
":  c #003700",
">  c #001C00",
",  c #002000",
"<  c #011001",
"1  c #004200",
"2  c #005A00",
"3  c #006000",
"4  c #001000",
"5  c #020002",
"6  c #002C00",
"7  c #004A00",
"8  c #016701",
"9  c #0AA70A",
"0  c None",
"q  c #04D404",
"w  c #00A700",
"e  c #006700",
"r  c #011201",
"t  c #003F00",
"y  c #005300",
"u  c #038503",
"i  c #11C511",
"p  c #09C509",
"a  c #048504",
"s  c #004300",
"d  c #004800",
"f  c #016801",
"g  c #07A707",
"h  c #06A706",
"j  c #006800",
"k  c #004800",
"l  c #038303",
"z  c #12C212",
"x  c #10C210",
"c  c #028302",
"v  c #004700",
"b  c #007200",
"n  c #00A000",
"m  c #00BC00",
"M  c #008400",
"N  c #004400",
"B  c #004700",
"V  c #005E00",
"C  c #008C00",
"Z  c #00A600",
"A  c #006900",
"S  c #004900",
"D  c #002000",
"F  c #004100",
"G  c #004F00",
"H  c #007500",
"J  c #009F00",
"K  c #00BF00",
"L  c #008500",
"P  c #005400",
"I  c #004000",
"U  c #001100",
"Y  c black",
"T  c #003300",
"R  c #004900",
"E  c #005D00",
"W  c #008700",
"Q  c #00A900",
"!  c #00AD00",
"~  c #008F00",
"^  c DarkGreen",
"/  c #004E00",
"(  c #001D00",
")  c #004300",
"_  c #005500",
"`  c #005900",
"'  c #005800",
"]  c #005400",
"[  c #003F00",
"{  c #001500",
"}  c #3BED3B",
"|  c #46FF46",
" . c #16FF16",
".. c #04ED04",
"X. c #24DA24",
"o. c #4BFA4B",
"O. c #42FF42",
"+. c #21FF21",
"@. c #0CFF0C",
"#. c #2FFF2F",
"$. c #52FA52",
"%. c #28DA28",
"&. c #3CED3C",
"*. c #4BFF4B",
"=. c #32FF32",
"-. c #13FF13",
";. c green",
":. c #06FF06",
">. c #50FF50",
",. c #9AFF9A",
"<. c #7DFF7D",
"1. c #3FED3F",
"2. c #034803",
"3. c #249524",
"4. c #49F149",
"5. c #41FF41",
"6. c #24FF24",
"7. c #03FF03",
"8. c #58FF58",
"9. c #96FF96",
"0. c #99FF99",
"q. c #5FF15F",
"w. c #239523",
"e. c #1B941B",
"r. c #2FF02F",
"t. c #14FF14",
"y. c #1BFF1B",
"u. c #88FF88",
"i. c #C8FFC8",
"p. c #A9F0A9",
"a. c #4A944A",
"s. c #074807",
"d. c #004800",
"f. c #009400",
"g. c #01F001",
"h. c #00FE00",
"j. c #0EFF0E",
"k. c #41FE41",
"l. c #64FF64",
"z. c #5CF05C",
"x. c #2A942A",
"c. c #044804",
"v. c #008A00",
"b. c #00DB00",
"n. c #00EA00",
"m. c #00E700",
"M. c #02E702",
"N. c #03EA03",
"B. c #03DB03",
"V. c #018A01",
"C. c #004700",
"Z. c #007E00",
"A. c #00C300",
"S. c #00D000",
"D. c #00B300",
"F. c #00AE00",
"G. c #00B700",
"H. c #00C600",
"J. c #00C000",
"K. c #00B500",
"L. c #00C200",
"P. c #00CF00",
"I. c #007F00",
"U. c #00C400",
"Y. c #00B600",
"T. c #009100",
"R. c #008600",
"E. c #009200",
"W. c #00A800",
"Q. c #00AA00",
"!. c #00A900",
"~. c #00BD00",
"^. c #00D600",
"/. c #00D400",
"(. c #008800",
"). c #00A400",
"_. c #009000",
"`. c #008D00",
"'. c #009C00",
"]. c #00B200",
"[. c #00C900",
"{. c #00DA00",
"}. c #00D700",
"|. c #00C100",
" X c #009600",
".X c #00B900",
"XX c #00CE00",
"oX c #00A200",
"OX c #00A700",
"+X c #00D100",
"@X c white",
/* pixels */
"  . X o < 1 2 3 3 2 1 4 o X .   ",
"O + 5 6 7 8 9 0 q w e 7 6 5 + O ",
"@ r t y u i } |  ...p a y t r @ ",
"s d f g X.o.O.+.@.#.$.%.h j d s ",
"k l z &.*.=.-.;.:.>.,.<.1.x c k ",
"2.3.4.5.6.:.;.;.7.+.8.9.0.q.w.2.",
"2.e.r.t.;.;.;.;.;.;.y.u.i.p.a.s.",
"d.f.g.;.h.;.;.h.h.h.j.k.l.z.x.c.",
"d.v.b.n.m.m.m.m.m.m.m.M.N.B.V.d.",
"C.Z.A.S.A.D.F.G.H.J.K.L.P.L.Z.C.",
"C.I.U.S.Y.T.R.E.W.Q.!.~.^./.(.d.",
"v b n J.J.)._.`.'.].[.{.}.m M k ",
"N B V C ].|.). X.X/.b.XXZ A S s ",
"# D F G H J oXOXU.+XK L P I U $ ",
"% & Y T R E W Q ! ~ ^ / 6 Y * = ",
"  - * ; ( ) _ ` ' ] [ { : > ,   "
};
