/* XPM */
static char *_6c9b0f998d846acb1dd4c6f69d05161UzlZySA7ZdvK2MVi[] = {
/* columns rows colors chars-per-pixel */
"16 16 189 2 ",
"   c #004400",
".  c #012001",
"X  c #011C01",
"o  c #003800",
"O  c #001C00",
"+  c #002000",
"@  c #020002",
"#  c #012701",
"$  c #002700",
"%  c black",
"&  c #006800",
"*  c #096809",
"=  c #005E00",
"-  c #006900",
";  c #000800",
":  c #002F00",
">  c #002A00",
",  c #003B00",
"<  c #011001",
"1  c #004200",
"2  c #005A00",
"3  c #006000",
"4  c #001000",
"5  c #020002",
"6  c #002C00",
"7  c #004A00",
"8  c #016701",
"9  c #0AA70A",
"0  c None",
"q  c #05D405",
"w  c #08A708",
"e  c #136713",
"r  c #0F4A0F",
"t  c black",
"y  c #011201",
"u  c #003F00",
"i  c #005300",
"p  c #028502",
"a  c #10C510",
"s  c #4CC54C",
"d  c #308530",
"f  c #105310",
"g  c #043F04",
"h  c #001200",
"j  c #004300",
"k  c #004800",
"l  c #006800",
"z  c #06A706",
"x  c #44A744",
"c  c #1C681C",
"v  c #0A480A",
"b  c #044304",
"n  c #004800",
"m  c #028302",
"M  c #10C210",
"N  c #4CC24C",
"B  c #2E832E",
"V  c #064806",
"C  c #004700",
"Z  c #007200",
"A  c #00A000",
"S  c #00BD00",
"D  c #008400",
"F  c #004400",
"G  c #004700",
"H  c #005E00",
"J  c #008C00",
"K  c #00A600",
"L  c #006900",
"P  c #004900",
"I  c #002000",
"U  c #004100",
"Y  c #004F00",
"T  c #007300",
"R  c #00A200",
"E  c #00BB00",
"W  c #008600",
"Q  c #005400",
"!  c #004000",
"~  c #001100",
"^  c #003300",
"/  c #004900",
"(  c #008C00",
")  c #00AD00",
"_  c #00A900",
"`  c #008A00",
"'  c #006300",
"]  c #004E00",
"[  c #001E00",
"{  c #005400",
"}  c #005800",
"|  c #005900",
" . c #005500",
".. c #003F00",
"X. c #001400",
"o. c #3AED3A",
"O. c #44FF44",
"+. c #18FF18",
"@. c #28ED28",
"#. c #27DA27",
"$. c #55FA55",
"%. c #48FF48",
"&. c #22FF22",
"*. c #0AFF0A",
"=. c #11FF11",
"-. c #2EFA2E",
";. c #4ADA4A",
":. c #3FED3F",
">. c #7DFF7D",
",. c #9AFF9A",
"<. c #4EFF4E",
"1. c #05FF05",
"2. c green",
"3. c #20FF20",
"4. c #3DED3D",
"5. c #034803",
"6. c #239523",
"7. c #5FF15F",
"8. c #99FF99",
"9. c #96FF96",
"0. c #58FF58",
"q. c #21FF21",
"w. c #03FF03",
"e. c #2AF12A",
"r. c #189518",
"t. c #024802",
"y. c #074807",
"u. c #4A944A",
"i. c #A9F0A9",
"p. c #C8FFC8",
"a. c #88FF88",
"s. c #1BFF1B",
"d. c #00F000",
"f. c #009400",
"g. c #004800",
"h. c #044804",
"j. c #2A942A",
"k. c #5CF05C",
"l. c #64FF64",
"z. c #41FE41",
"x. c #0EFF0E",
"c. c #00FE00",
"v. c #018A01",
"b. c #03DB03",
"n. c #03EA03",
"m. c #02E702",
"M. c #00E700",
"N. c #00EA00",
"B. c #00DB00",
"V. c #008A00",
"C. c #004700",
"Z. c #007E00",
"A. c #00C300",
"S. c #00D000",
"D. c #00C200",
"F. c #00B500",
"G. c #00C000",
"H. c #00C600",
"J. c #00B700",
"K. c #00AE00",
"L. c #00B300",
"P. c #00CF00",
"I. c #007F00",
"U. c #00C400",
"Y. c #00BE00",
"T. c #00AA00",
"R. c #00A800",
"E. c #009200",
"W. c #008600",
"Q. c #009100",
"!. c #00D700",
"~. c #00D400",
"^. c #008800",
"/. c #00CE00",
"(. c #00C800",
"). c #009C00",
"_. c #008D00",
"`. c #008F00",
"'. c #00A500",
"]. c #00CB00",
"[. c #00B200",
"{. c #00CA00",
"}. c #00B800",
"|. c #009700",
" X c #00AB00",
".X c #00D200",
"XX c #00C100",
"oX c #00A900",
"OX c white",
/* pixels */
"  . X o < 1 2 3 3 2 1 4 o O +   ",
"@ # 5 6 7 8 9 0 q w e r 6 t $ % ",
"& y u i p a o.O.+.@.s d f g h * ",
"j k l z #.$.%.&.*.=.-.;.x c v b ",
"n m M :.>.,.<.1.2.2.1.3.4.N B V ",
"5.6.7.8.9.0.q.w.2.2.2.2.=.e.r.t.",
"y.u.i.p.a.s.2.2.2.2.2.2.2.d.f.g.",
"h.j.k.l.z.x.c.c.c.2.2.c.2.d.f.g.",
"g.v.b.n.m.M.M.M.M.M.M.M.N.B.V.g.",
"C.Z.A.S.D.F.G.H.J.K.L.A.P.D.Z.C.",
"C.I.U.S.Y.T.T.R.E.W.Q.F.!.~.^.g.",
"C Z A G./.(.L.)._.`.'.].!.S D n ",
"F G H J [.{./.}.|. X.X/.K L P j ",
"= I U Y T R XXD.oX[.E W Q ! ~ - ",
"; : t ^ / H ( ) _ ` ' ] 6 t $ % ",
"  > $ , [ 1 { } |  ...X.o O +   "
};
