/* XPM */
static char *_59252358bd841a0ea8f0fa6a51bfa8dVaLVVhd24ySZOMLd[] = {
/* columns rows colors chars-per-pixel */
"16 16 74 1 ",
"  c black",
". c #067CD9",
"X c #0084D7",
"o c #136CDE",
"O c #3E36EE",
"+ c #432FF0",
"@ c #4330F0",
"# c #2B4DE7",
"$ c #047FD8",
"% c #008AD5",
"& c #037FDA",
"* c #3146EA",
"= c #2950E8",
"- c #047EDA",
"; c #1B62E1",
": c #3D38EE",
"> c #4331F0",
", c #4231F0",
"< c #2852E6",
"1 c #00ABC9",
"2 c #0C73E0",
"3 c #1F5BE7",
"4 c #205AE7",
"5 c #205AE7",
"6 c #1A62E5",
"7 c #008DD6",
"8 c #1A61E5",
"9 c #3349D9",
"0 c None",
"q c #2C4DE7",
"w c #0092D8",
"e c #106DE4",
"r c #2B55D3",
"t c #2F59B5",
"y c #205DE0",
"u c #00BFD9",
"i c #205BE7",
"p c #304DD7",
"a c #0080E0",
"s c #215AE7",
"d c #324CD5",
"f c #017FE0",
"g c #215AE7",
"h c #017FE1",
"j c #215AE6",
"k c #3449D9",
"l c #0080DF",
"z c #146ADF",
"x c #2457E2",
"c c #0182D8",
"v c #2F5EA7",
"b c #2E61A1",
"n c #2E60A1",
"m c #2E61A0",
"M c #277088",
"N c #0EA04C",
"B c #0CA24A",
"V c #0DA24A",
"C c #0CA349",
"Z c #188F5F",
"A c #0DA14C",
"S c #0CA34A",
"D c #1C876A",
"F c #0CA24B",
"G c #198C63",
"H c #0CA449",
"J c #198D62",
"K c #3556AD",
"L c #247977",
"P c #304ADF",
"I c #324CD6",
"U c #314CD6",
"Y c #3349D9",
"T c white",
/* pixels */
"     .........  ",
"    .XoO+@+#$.. ",
"   .%12345467&..",
"  .*=89vbnm0qw-.",
"  .;erMNBVCZtyu.",
"  .:ivNAAAASDpa.",
"  .>sbBAAAAFGdf.",
"  .,gnVAAAAFGdf.",
"  .,gnVAAAAFGdf.",
"  .,gnVAAAAFGdf.",
"  .,gnVAAAAFGdf.",
"  .,gnVAAAAFGdf.",
"  .,gnVAAAAFGdf.",
"  .,gbCFFFFHJdh.",
"  .>jKJGGGGJLkl.",
"  .<zPIUUUUUYxc."
};
