/* XPM */
static char *ce77ac77a26b4f4de170bdb6a52591d07edRkEmPKhsydFu4[] = {
/* columns rows colors chars-per-pixel */
"16 16 185 2 ",
"   c white",
".  c gray99",
"X  c #E6E8E5",
"o  c #E3E7E3",
"O  c #E3E7E2",
"+  c #FBFCFB",
"@  c #FDFDFD",
"#  c #F5F5F4",
"$  c #272A26",
"%  c #101613",
"&  c #101515",
"*  c #292C29",
"=  c #F5F6F5",
"-  c #FEFEFE",
";  c #4D524D",
":  c #34153A",
">  c #3C194B",
",  c #512F61",
"<  c #2A112F",
"1  c #4B504A",
"2  c #F9FAF8",
"3  c #848B84",
"4  c #26122E",
"5  c #5C1F5B",
"6  c #6A1E68",
"7  c #7B3D7A",
"8  c #926E95",
"9  c #2C1932",
"0  c #838983",
"q  c #F9FAF9",
"w  c #E9ECE9",
"e  c #0C100F",
"r  c #4F1D52",
"t  c #721F61",
"y  c #74165D",
"u  c #6F2A66",
"i  c #C6A3CF",
"p  c #542C5F",
"a  c #0B0C0C",
"s  c #E9EDE9",
"d  c #E9EBE8",
"f  c #201E26",
"g  c #531654",
"h  c #771A63",
"j  c #811F67",
"k  c #722167",
"l  c #703B7D",
"z  c #491D54",
"x  c #221B24",
"c  c #E8EBE8",
"v  c #FDFEFD",
"b  c #F7FAF6",
"n  c #1D1B1C",
"m  c #5B134B",
"M  c #862168",
"N  c #861F63",
"B  c #7E1F65",
"V  c #823882",
"C  c #4C1B55",
"Z  c #201720",
"A  c #F3F5F3",
"S  c #656966",
"D  c #4F2330",
"F  c #B4533A",
"G  c #91245F",
"H  c #992661",
"J  c #BF573F",
"K  c #8C2E63",
"L  c #611B61",
"P  c #371B3B",
"I  c #646C66",
"U  c #F0F2EF",
"Y  c #0E0A12",
"T  c #6B293E",
"R  c #E4A534",
"E  c #952E5D",
"W  c #A0305A",
"Q  c #E6A030",
"!  c #892F50",
"~  c #6E1B60",
"^  c #4A234C",
"/  c #0D0D0E",
"(  c #F0F2F0",
")  c #FFFEFF",
"_  c #D0D5CF",
"`  c #2F1830",
"'  c #702949",
"]  c #DFAC4F",
"[  c #A63359",
"{  c #A7305D",
"}  c #DDAB57",
"|  c #8F3058",
" . c #711A61",
".. c #542A4F",
"X. c #2B2229",
"o. c #D1D4D0",
"O. c #F0F3EF",
"+. c #262223",
"@. c #5B1A4C",
"#. c #882263",
"$. c #982D56",
"%. c #B5296B",
"&. c #B52A68",
"*. c #992F53",
"=. c #9A2368",
"-. c #861D66",
";. c #67255E",
":. c #503D59",
">. c #1F2621",
",. c #F0F3F0",
"<. c #50524C",
"1. c #4C1A3F",
"2. c #7F2061",
"3. c #992468",
"4. c #AE286A",
"5. c #B52B6C",
"6. c #B52B6B",
"7. c #AE256B",
"8. c #9F226A",
"9. c #992064",
"0. c #7C236A",
"q. c #68477E",
"w. c #484553",
"e. c #384438",
"r. c #C7CFC7",
"t. c #E7EAE7",
"y. c #100B0E",
"u. c #661B53",
"i. c #8D236B",
"p. c #A0246D",
"a. c #B52C6E",
"s. c #B72B6C",
"d. c #B82B6B",
"f. c #B42C6C",
"g. c #A2246A",
"h. c #9B256A",
"j. c #871E66",
"k. c #6E3470",
"l. c #605F6D",
"z. c black",
"x. c #AFB6AE",
"c. c #F1F3F1",
"v. c #545851",
"b. c #471838",
"n. c #7A1B5E",
"m. c #981E69",
"M. c #AA2469",
"N. c #B32669",
"B. c #B42669",
"V. c #AB2369",
"C. c #9C1E6A",
"Z. c #901F69",
"A. c #7B235D",
"S. c #593156",
"D. c #47474C",
"F. c #3F4941",
"G. c #CBD0CA",
"H. c #F3F5F4",
"J. c #2F2B28",
"K. c #5F3247",
"L. c #843A5B",
"P. c #943F5B",
"I. c #A44860",
"U. c #A24761",
"Y. c #943E5B",
"T. c #8E3E5E",
"R. c #793C58",
"E. c #6D5860",
"W. c #60695F",
"Q. c #273126",
"!. c #F4F5F3",
"~. c #FBFCFC",
"^. c #E5E8E4",
"/. c #EAEBE5",
"(. c #ECECE7",
"). c #EDECE7",
"_. c #F0EEE7",
"`. c #F0EDE8",
"'. c #EFECE7",
"]. c #EEECE7",
"[. c #EBECE6",
"{. c #EBEEE7",
"}. c #EBEFE8",
"|. c #E6EAE5",
" X c #FBFBFB",
/* pixels */
"          . X o O X +           ",
"      @   # $ % & * =   @       ",
"    -     ; : > , < 1     -     ",
"  -   2 3 4 5 6 7 8 9 0 q   -   ",
"  -   w e r t y u i p a s   -   ",
"  -   d f g h j k l z x c   -   ",
"  v   b n m M N B V C Z b   v   ",
"-   A S D F G H J K L P I A   - ",
"v   U Y T R E W Q ! ~ ^ / (   @ ",
")   _ ` ' ] [ { } |  ...X.o.  - ",
"  O.+.@.#.$.%.&.*.=.-.;.:.>.,.  ",
"( <.1.2.3.4.5.6.7.8.9.0.q.w.e.r.",
"t.y.u.i.p.a.s.d.f.g.h.j.k.l.z.x.",
"c.v.b.n.m.M.N.B.V.C.Z.A.S.D.F.G.",
"  H.J.K.L.P.I.U.Y.T.R.E.W.Q.!.  ",
"  ~.^./.(.)._.`.'.].[.{.}.|. X  "
};
