/* XPM */
static char *bd22c57314cb4af3cc801c12038bf601wHuezAK9VJ1BEwS6[] = {
/* columns rows colors chars-per-pixel */
"16 16 7 1 ",
"  c None",
". c black",
"X c #222034",
"o c #555271",
"O c #63A341",
"+ c #A7DC75",
"@ c #E3FF8D",
/* pixels */
"                ",
"                ",
"                ",
"                ",
"                ",
"    ........    ",
"   .@@@+++++.   ",
"  .@@@+@+++++.  ",
" .@@@+@+++o+o+. ",
" .@@@+@+++X+X+. ",
" .@@+@++++++++. ",
" .@+@++++OOXO+. ",
" .+++++OOOOOOO. ",
"  .++OOOOOOOO.  ",
"   ..........   ",
"                "
};
