/* XPM */
static char *_fb485992cec46ebbb950234a113937eKTJWKFmk8GP0zFFM[] = {
/* columns rows colors chars-per-pixel */
"16 16 247 2 ",
"   c None",
".  c #5A4A41",
"X  c #52433A",
"o  c #56473C",
"O  c #53463B",
"+  c #594B3D",
"@  c #544637",
"#  c #564838",
"$  c #5A4C3C",
"%  c #6B5C48",
"&  c #655649",
"*  c #766558",
"=  c #6F5E52",
"-  c #5F4E45",
";  c #57463F",
":  c #463532",
">  c #5E4E41",
",  c #574639",
"<  c #56463A",
"1  c #58493D",
"2  c #5D4E40",
"3  c #57483A",
"4  c #564738",
"5  c #635241",
"6  c #685745",
"7  c #6A5A4A",
"8  c #746454",
"9  c #5A493E",
"0  c #6D5C4B",
"q  c #5D4C3E",
"w  c #58473B",
"e  c #5D4E3E",
"r  c #524538",
"t  c #645543",
"y  c #71614F",
"u  c #71614F",
"i  c #645443",
"p  c #584939",
"a  c #5A4A3A",
"s  c #645240",
"d  c #695745",
"f  c #6A5A48",
"g  c #706051",
"h  c #605044",
"j  c #6F604A",
"k  c #6D5E47",
"l  c #6D5E48",
"z  c #504336",
"x  c #4F4337",
"c  c #5B4E40",
"v  c #675949",
"b  c #665848",
"n  c #625344",
"m  c #57483B",
"M  c #5C4D3F",
"N  c #5D4D40",
"B  c #59493D",
"V  c #53443B",
"C  c #5C4D41",
"Z  c #58493E",
"A  c #635542",
"S  c #5F523F",
"D  c #5C4D3B",
"F  c #504437",
"G  c #554739",
"H  c #675845",
"J  c #6C5D48",
"K  c #7C6C54",
"L  c #7A6C57",
"P  c #58493F",
"I  c #726153",
"U  c #615249",
"Y  c #574640",
"T  c #5E4D43",
"R  c #756451",
"E  c #625342",
"W  c #5C4E3D",
"Q  c #605242",
"!  c #5D4F3F",
"~  c #5B4D3E",
"^  c #5A4B3C",
"/  c #6D5D48",
"(  c #6D5E49",
")  c #786851",
"_  c #7D6F57",
"`  c #655549",
"'  c #7B6B5B",
"]  c #66574D",
"[  c #56463E",
"{  c #615043",
"}  c #685746",
"|  c #5F503E",
" . c #5D4F3D",
".. c #655745",
"X. c #675A48",
"o. c #56473D",
"O. c #54453B",
"+. c #594A3E",
"@. c #4D3F36",
"#. c #665748",
"$. c #645545",
"%. c #605246",
"&. c #615247",
"*. c #55473F",
"=. c #4E3F38",
"-. c #57473D",
";. c #5C4D40",
":. c #534438",
">. c #55463B",
",. c #605044",
"<. c #55473D",
"1. c #56483E",
"2. c #5F4F45",
"3. c #4F403A",
"4. c #6C5D4E",
"5. c #675847",
"6. c #786A57",
"7. c #5A4C41",
"8. c #58493E",
"9. c #57483C",
"0. c #584A40",
"q. c #615145",
"w. c #615043",
"e. c #6C594D",
"r. c #736052",
"t. c #635246",
"y. c #4D3F38",
"u. c #473A34",
"i. c #50413A",
"p. c #4F3F39",
"a. c #605145",
"s. c #5E4F41",
"d. c #645546",
"f. c #4F4139",
"g. c #504238",
"h. c #504239",
"j. c #53453C",
"k. c #58493F",
"l. c #594A40",
"z. c #645449",
"x. c #6A594D",
"c. c #5E4F44",
"v. c #493B35",
"b. c #57473E",
"n. c #665449",
"m. c #6C5B4D",
"M. c #6E5D4E",
"N. c #766654",
"B. c #5D4D40",
"V. c #54453D",
"C. c #625246",
"Z. c #66564A",
"A. c #6D5C4E",
"S. c #736353",
"D. c #6B5B4F",
"F. c #645448",
"G. c #635347",
"H. c #55453D",
"J. c #69584C",
"K. c #6A594C",
"L. c #6B594C",
"P. c #6B594A",
"I. c #705F4F",
"U. c #766653",
"Y. c #665646",
"T. c #54453C",
"R. c #605045",
"E. c #615146",
"W. c #6A584A",
"Q. c #736151",
"!. c #66574C",
"~. c #726253",
"^. c #5C4C43",
"/. c #5F4F45",
"(. c #736253",
"). c #53433A",
"_. c #5D4C3F",
"`. c #5E4D41",
"'. c #5C4C3F",
"]. c #594A3D",
"[. c #524439",
"{. c #584A3E",
"}. c #52443A",
"|. c #4B3C35",
" X c #51423B",
".X c #483935",
"XX c #5E4F45",
"oX c #635245",
"OX c #6C5B4B",
"+X c #7D6C58",
"@X c #776755",
"#X c #665442",
"$X c #6A5744",
"%X c #675642",
"&X c #695944",
"*X c #71614A",
"=X c #695948",
"-X c #57463E",
";X c #56463D",
":X c #5B4A40",
">X c #655447",
",X c #645346",
"<X c #615143",
"1X c #6E5D4C",
"2X c #69594B",
"3X c #584940",
"4X c #695746",
"5X c #665442",
"6X c #655341",
"7X c #625241",
"8X c #635441",
"9X c #6D5D48",
"0X c #6D5D4C",
"qX c #54443C",
"wX c #504038",
"eX c #68574A",
"rX c #5F4E45",
"tX c #5A4942",
"yX c #5D4C42",
"uX c #675748",
"iX c #5F4F41",
"pX c #635443",
"aX c #615243",
"sX c #695847",
"dX c #5E4E42",
"fX c #6C5B4E",
"gX c #68564C",
"hX c #54433D",
"jX c #594941",
"kX c #53433D",
"lX c #675549",
"zX c #6D5B50",
"xX c #6A584B",
"cX c #625141",
"vX c #645343",
"bX c #605040",
"nX c #574939",
"mX c #635540",
"MX c #665744",
"NX c #73624D",
"BX c #6B594B",
"VX c #837162",
"CX c #7E6B5D",
"ZX c #655348",
"AX c #615046",
"SX c #635249",
"DX c white",
/* pixels */
"  . X o O + @ # $ % & * = - ; : ",
"> o , < 1 2 3 4 5 6 7 8 9 0 q w ",
"e r t y u i p a s d f g h j k l ",
"z x c v b n m M N B V C Z A S D ",
"F G H J K L P I U Y T R E W Q ! ",
"~ ^ / ( ) _ ` ' ] [ { } |  ...X.",
"o.O.+.@.#.$.%.&.*.=.-.;.:.>.,.o.",
"<.1.2.3.4.5.6.7.8.9.0.q.w.e.r.t.",
"y.u.i.p.a.s.d.f.g.h.j.k.l.z.x.c.",
"1.v.b.n.m.q.M.N.B.V.C.Z.A.S.D.F.",
"G.H.J.K.L.P.I.U.Y.T.R.E.W.Q.!.~.",
"^./.(.,.)._.`.'.].[.{.}.|. X.XXX",
"oXOX+X@X9 #X$X%X%X&X*X=X-X;X:X>X",
",X<X1X2X3X4X5X6X7X8X9X0XqXwX-.eX",
"rXtXyX,.G.uXiXpXaXsXdXfXgXhXjXkX",
"lXzXxXcXvXbXnXmXMXNXBXVXCXZXAXSX"
};
